This is season 1 of Hey Arnold in an .avi format. All files in this torrent are Dvdrip and were encoded using XviD. Credit goes to the encoder.
 
http://img816.imageshack.us/img816/4449/vlcsnap2010101213h33m07.png 
http://img716.imageshack.us/img716/4585/vlcsnap2010101213h35m40.png 
http://img524.imageshack.us/img524/1466/vlcsnap2010101213h35m31.png 
http://img833.imageshack.us/img833/1738/vlcsnap2010101213h34m55.png


ID : 0
Format : MPEG-4 Visual
Format profile : Advanced Simple@L5
Format settings, BVOP : Yes
Format settings, QPel : No
Format settings, GMC : No warppoints
Format settings, Matrix : Default (H.263)
Muxing mode : Packed bitstream
Codec ID : XVID
Codec ID/Hint : XviD
Duration : 23mn 38s
Bit rate : 932 Kbps
Width : 576 pixels
Height : 432 pixels
Display aspect ratio : 4:3
Frame rate : 29.970 fps
Color space : YUV
Chroma subsampling : 4:2:0
Bit depth : 8 bits
Scan type : Progressive
Bits/(Pixel*Frame) : 0.125
Stream size : 158 MiB (87%)
Writing library : XviD 1.2.0.dev47 (UTC 2006-11-01)

Audio
ID : 1
Format : MPEG Audio
Format version : Version 1
Format profile : Layer 3
Mode : Joint stereo
Mode extension : MS Stereo
Codec ID : 55
Codec ID/Hint : MP3
Duration : 23mn 38s
Bit rate mode : Constant
Bit rate : 128 Kbps
Channel(s) : 2 channels
Sampling rate : 48.0 KHz
Stream size : 21.6 MiB (12%)
Alignment : Split accross interleaves
Interleave, duration : 33 ms (1.00 video frame)
Interleave, preload duration : 500 ms 